<?xml version="1.0" encoding="utf-8"?>
<!-- Generator: Adobe Illustrator 25.0.0, SVG Export Plug-In . SVG Version: 6.00 Build 0)  -->
<svg version="1.1" id="Layer_1" focusable="false" xmlns="http://www.w3.org/2000/svg" xmlns:xlink="http://www.w3.org/1999/xlink"
	 x="0px" y="0px" viewBox="0 0 24 24" style="enable-background:new 0 0 24 24;" xml:space="preserve">
<g>
	<g>
		<path d="M11.4,13.1c-0.3-0.3-0.5-0.5-0.5-0.9s0-0.6,0.3-1c0.3-0.3,0.5-0.5,0.9-0.5c0.4,0,0.6,0,1,0.3c0.3,0.3,0.5,0.5,0.5,0.9
			s0,0.6-0.3,1s-0.6,0.5-1,0.5C11.9,13.3,11.6,13.2,11.4,13.1 M22,12c0,5.4-4.4,9.9-9.9,9.9S2.3,17.5,2.3,12s4.5-9.9,9.9-9.9
			S22,6.5,22,12 M18,6L9.9,9.7l-3.7,8.1l8.1-3.7L18,6L18,6"/>
	</g>
</g>
</svg>
