<?xml version="1.0" encoding="utf-8"?>
<!-- Generator: Adobe Illustrator 25.0.0, SVG Export Plug-In . SVG Version: 6.00 Build 0)  -->
<svg version="1.1" id="Layer_1" focusable="false" xmlns="http://www.w3.org/2000/svg" xmlns:xlink="http://www.w3.org/1999/xlink"
	 x="0px" y="0px" viewBox="0 0 24 24" style="enable-background:new 0 0 24 24;" xml:space="preserve">
<g>
	<path d="M11.9,3.8c-4.6,0-8.2,3.7-8.2,8.2H0.9l3.6,3.6l0,0.1L8.2,12H5.5c0-3.5,2.9-6.4,6.4-6.4c3.5,0,6.4,2.9,6.4,6.4
		s-2.9,6.4-6.4,6.4c-1.8,0-3.4-0.7-4.5-1.9l-1.3,1.3c1.5,1.5,3.6,2.4,5.8,2.4c4.6,0,8.3-3.7,8.3-8.2C20.2,7.4,16.5,3.8,11.9,3.8
		L11.9,3.8z M11,8.3v4.6l3.9,2.3l0.7-1.1l-3.2-1.9V8.3H11z"/>
</g>
</svg>
