<?xml version="1.0" encoding="utf-8"?>
<!-- Generator: Adobe Illustrator 25.0.0, SVG Export Plug-In . SVG Version: 6.00 Build 0)  -->
<svg version="1.1" id="Layer_1" focusable="false" xmlns="http://www.w3.org/2000/svg" xmlns:xlink="http://www.w3.org/1999/xlink"
	 x="0px" y="0px" viewBox="0 0 24 24" style="enable-background:new 0 0 24 24;" xml:space="preserve">
<g>
	<path d="M3.8,18.8h3v-9h-3V18.8z M20.2,10.5c0-0.8-0.7-1.5-1.5-1.5H14l0.7-3.4l0-0.2c0-0.3-0.1-0.6-0.3-0.8l-0.8-0.8L8.7,8.7
		C8.4,9,8.2,9.3,8.2,9.8v7.5c0,0.8,0.7,1.5,1.5,1.5h6.8c0.6,0,1.1-0.4,1.4-0.9l2.3-5.3c0.1-0.2,0.1-0.4,0.1-0.6V10.5z"/>
</g>
</svg>
