<?xml version="1.0" encoding="utf-8"?>
<!-- Generator: Adobe Illustrator 25.0.0, SVG Export Plug-In . SVG Version: 6.00 Build 0)  -->
<svg version="1.1" id="Layer_1" focusable="false" xmlns="http://www.w3.org/2000/svg" xmlns:xlink="http://www.w3.org/1999/xlink"
	 x="0px" y="0px" viewBox="0 0 24 24" style="enable-background:new 0 0 24 24;" xml:space="preserve">
<g>
	<path d="M18.4,5.6v12.8H5.6V5.6H18.4z M18.4,3.8H5.6c-1,0-1.8,0.8-1.8,1.8l0,0v12.8c-0.1,1,0.7,1.8,1.7,1.9c0,0,0.1,0,0.1,0h12.8
		c1,0.1,1.8-0.7,1.9-1.7c0-0.1,0-0.1,0-0.2V5.6c0-1-0.8-1.8-1.8-1.8C18.5,3.8,18.4,3.8,18.4,3.8z"/>
	<path d="M10.2,9v6.5l5-3.2l-5-3.2V9z"/>
</g>
</svg>
